<svg width="5263" height="5093" viewBox="0 0 5263 5093" fill="none" xmlns="http://www.w3.org/2000/svg">
<path d="M1059.99 2163.96H1340.37V2224.78H1131.12V2319.61H1316.15V2376.82H1131.12V2485.06H1345.01V2547.42H1059.99V2163.96ZM1560.04 2547.42V2508.25H1559.01C1548.7 2523.71 1537.36 2535.05 1524.48 2542.78C1511.59 2551.03 1495.62 2554.64 1476.03 2554.64C1445.62 2554.64 1421.91 2546.39 1405.42 2528.87C1388.93 2511.34 1380.68 2487.64 1380.68 2457.74V2272.2H1446.14V2448.46C1446.14 2464.96 1450.26 2477.84 1459.54 2486.6C1468.3 2495.88 1481.18 2500 1497.68 2500C1516.23 2500 1530.66 2493.82 1542 2481.45C1552.83 2469.08 1558.49 2453.1 1558.49 2433.52V2272.2H1623.44V2547.42H1560.04ZM1736.31 2321.68H1737.86C1755.38 2286.11 1781.67 2268.07 1816.72 2268.07C1824.45 2268.07 1830.12 2269.1 1834.24 2270.65V2329.41H1832.18C1826.51 2328.38 1820.32 2327.34 1814.14 2327.34C1792.49 2327.34 1774.45 2334.04 1760.02 2348.48C1745.59 2362.91 1738.37 2383.01 1738.37 2409.29V2547.42H1672.92V2272.2H1736.31V2321.68ZM1986.2 2555.67C1964.55 2555.67 1945.48 2552.06 1927.96 2544.33C1910.43 2537.11 1896 2526.81 1883.63 2513.41C1871.26 2500.52 1861.99 2485.06 1855.29 2467.53C1848.59 2450.01 1845.49 2430.94 1845.49 2410.32C1845.49 2389.71 1848.59 2370.64 1855.29 2353.11C1861.99 2335.59 1871.26 2320.13 1883.63 2306.73C1896 2293.84 1910.43 2283.54 1927.96 2276.32C1945.48 2269.1 1964.55 2264.98 1986.2 2264.98C2007.33 2264.98 2026.4 2269.1 2043.92 2276.32C2060.93 2283.54 2075.36 2293.84 2087.73 2306.73C2100.1 2320.13 2109.38 2335.59 2116.08 2353.11C2122.27 2370.64 2125.87 2389.71 2125.87 2410.32C2125.87 2430.94 2122.27 2450.01 2116.08 2467.53C2109.38 2485.06 2100.1 2500.52 2087.73 2513.41C2075.36 2526.81 2060.93 2537.11 2043.92 2544.33C2026.4 2552.06 2007.33 2555.67 1986.2 2555.67ZM1985.68 2506.19C1997.54 2506.19 2007.85 2504.13 2017.12 2498.97C2026.4 2494.34 2034.13 2487.64 2040.32 2478.87C2046.5 2470.63 2051.14 2460.32 2054.23 2448.46C2057.33 2437.13 2059.39 2424.24 2059.39 2410.32C2059.39 2396.92 2057.33 2384.04 2054.23 2372.18C2051.14 2360.33 2046.5 2350.02 2040.32 2341.26C2034.13 2332.5 2026.4 2325.8 2017.12 2320.64C2007.85 2316.01 1997.54 2313.43 1985.68 2313.43C1973.31 2313.43 1963.01 2316.01 1953.73 2320.64C1944.45 2325.8 1936.72 2332.5 1930.54 2341.26C1924.35 2350.02 1919.71 2360.33 1916.62 2372.18C1913.53 2384.04 1911.98 2396.92 1911.98 2410.32C1911.98 2424.24 1913.53 2437.13 1916.62 2448.46C1919.71 2460.32 1924.35 2470.63 1930.54 2478.87C1936.72 2487.64 1944.45 2494.34 1953.73 2498.97C1963.01 2504.13 1973.31 2506.19 1985.68 2506.19ZM2161.67 2272.2H2225.06V2312.91H2226.61C2236.4 2297.45 2248.25 2285.6 2262.17 2277.35C2275.57 2269.1 2292.58 2264.98 2312.16 2264.98C2329.69 2264.98 2346.18 2268.59 2360.61 2275.29C2375.04 2282.5 2387.93 2292.3 2398.24 2304.67C2408.54 2317.55 2416.28 2333.01 2421.95 2350.54C2427.61 2368.58 2430.71 2388.68 2430.71 2410.32C2430.71 2433 2427.61 2453.1 2421.95 2470.63C2416.28 2488.67 2408.54 2504.13 2398.24 2516.5C2387.93 2529.38 2375.04 2539.18 2360.1 2545.88C2345.15 2553.09 2328.66 2556.18 2310.1 2556.18C2291.55 2556.18 2275.05 2552.58 2260.62 2544.84C2246.19 2537.63 2234.85 2526.81 2226.61 2512.37H2225.06C2225.58 2517.53 2226.09 2524.74 2226.61 2533.51C2226.61 2542.27 2227.12 2553.09 2227.12 2565.98V2639.68H2161.67V2272.2ZM2297.73 2504.13C2308.04 2504.13 2317.83 2502.07 2326.08 2497.43C2334.33 2493.3 2341.54 2486.6 2347.21 2478.36C2352.37 2470.11 2356.49 2460.32 2359.58 2448.98C2362.67 2437.64 2364.22 2425.27 2364.22 2411.87C2364.22 2398.47 2362.67 2385.59 2360.1 2374.25C2357 2362.91 2352.88 2352.6 2347.21 2344.35C2341.54 2336.11 2334.84 2329.92 2326.6 2325.28C2318.35 2320.64 2308.56 2318.07 2297.22 2318.07C2284.85 2318.07 2274.02 2320.64 2264.75 2325.28C2255.47 2330.44 2248.25 2337.14 2242.07 2345.38C2235.88 2354.15 2231.76 2363.94 2228.67 2375.28C2225.58 2386.62 2224.55 2398.99 2224.55 2411.87C2224.55 2425.27 2225.58 2437.13 2228.67 2448.46C2231.76 2459.8 2235.88 2469.08 2242.07 2477.33C2248.25 2485.57 2255.47 2492.27 2264.75 2496.91C2274.02 2502.07 2284.85 2504.13 2297.73 2504.13ZM2592.71 2555.67C2570.55 2555.67 2550.97 2552.06 2533.44 2544.33C2515.92 2537.11 2501.49 2526.81 2489.63 2513.41C2477.26 2500.52 2467.99 2485.06 2461.8 2467.53C2455.62 2450.01 2452.52 2430.94 2452.52 2410.32C2452.52 2389.71 2455.62 2370.64 2462.32 2353.11C2468.5 2335.59 2477.78 2320.13 2490.15 2306.73C2502 2293.84 2516.43 2283.54 2533.44 2276.32C2549.93 2269.1 2568.49 2264.98 2589.1 2264.98C2609.21 2264.98 2627.24 2268.59 2642.71 2275.29C2658.17 2281.99 2672.08 2291.27 2683.94 2303.64C2697.34 2318.07 2707.13 2336.11 2713.83 2356.72C2720.02 2377.34 2723.11 2400.53 2723.11 2426.3H2517.46C2519.53 2450.01 2527.26 2469.6 2539.63 2484.03C2552 2498.46 2570.03 2505.67 2593.23 2505.67C2608.69 2505.67 2621.58 2502.58 2631.88 2496.4C2642.19 2490.21 2649.41 2480.93 2654.05 2469.6H2717.96C2714.35 2481.97 2709.19 2493.82 2701.98 2504.13C2694.76 2514.44 2686 2523.71 2675.69 2531.44C2664.87 2539.18 2652.5 2545.36 2638.58 2549.48C2624.67 2553.61 2609.21 2555.67 2592.71 2555.67ZM2589.1 2312.4C2567.46 2312.4 2550.97 2319.1 2539.63 2332.5C2528.29 2345.9 2521.07 2363.42 2518.49 2385.07H2655.59C2654.05 2362.39 2647.35 2344.87 2636.01 2331.98C2624.67 2319.1 2608.69 2312.4 2589.1 2312.4ZM2884.87 2163.96H2979.19L3042.06 2346.41C3045.67 2357.75 3049.28 2371.15 3053.4 2385.59C3057.01 2400.53 3060.62 2414.45 3064.23 2427.85L3075.57 2475.27H3077.11C3080.2 2459.8 3083.81 2443.83 3087.94 2427.85C3091.03 2414.96 3094.12 2401.05 3098.24 2386.1C3102.37 2371.15 3105.97 2357.75 3110.1 2346.41L3171.95 2163.96H3268.33V2547.42H3201.84V2347.45C3201.84 2337.14 3201.84 2325.28 3202.35 2311.37C3202.35 2297.97 3202.87 2284.57 3203.9 2272.2C3204.42 2257.76 3205.45 2243.33 3206.48 2227.87H3205.45C3202.35 2241.79 3198.75 2255.19 3195.65 2268.07C3192.56 2279.41 3189.47 2291.27 3186.38 2303.64C3183.29 2316.01 3180.19 2327.34 3177.1 2336.62L3104.43 2547.42H3046.7L2973.52 2336.62C2970.42 2327.34 2966.82 2316.01 2963.72 2303.64C2960.12 2291.27 2957.02 2279.41 2954.45 2268.07C2950.84 2255.19 2947.75 2241.79 2945.17 2227.87H2944.14C2944.65 2243.33 2945.17 2257.76 2946.2 2272.2C2946.71 2284.57 2947.23 2297.97 2947.75 2311.37C2948.26 2325.28 2948.78 2337.14 2948.78 2347.45V2547.42H2884.87V2163.96ZM3500.68 2547.42V2508.25H3499.65C3489.34 2523.71 3478 2535.05 3465.11 2542.78C3452.23 2551.03 3436.25 2554.64 3416.67 2554.64C3386.26 2554.64 3362.55 2546.39 3346.06 2528.87C3329.56 2511.34 3321.32 2487.64 3321.32 2457.74V2272.2H3386.77V2448.46C3386.77 2464.96 3390.9 2477.84 3400.17 2486.6C3408.94 2495.88 3421.82 2500 3438.31 2500C3456.87 2500 3471.3 2493.82 3482.64 2481.45C3493.46 2469.08 3499.13 2453.1 3499.13 2433.52V2272.2H3564.07V2547.42H3500.68ZM3723.85 2556.18C3684.16 2556.18 3653.24 2547.94 3631.59 2530.41C3609.95 2513.41 3598.09 2490.73 3596.03 2462.9H3658.91C3661.49 2479.39 3668.7 2491.76 3680.56 2498.97C3691.9 2506.19 3706.84 2509.8 3724.37 2509.8C3742.41 2509.8 3755.81 2506.7 3764.57 2499.49C3772.81 2492.27 3777.45 2483.51 3777.45 2472.17C3777.45 2465.47 3775.39 2459.8 3772.3 2455.68C3768.69 2451.56 3764.05 2447.95 3757.87 2444.86C3751.68 2441.76 3743.95 2439.7 3735.19 2437.64C3726.43 2435.58 3716.64 2433.52 3706.33 2431.46C3692.93 2429.39 3680.56 2426.3 3668.7 2422.69C3656.33 2419.6 3646.02 2414.96 3636.75 2408.78C3627.47 2402.59 3619.74 2394.86 3614.07 2385.07C3608.4 2375.28 3605.82 2362.39 3605.82 2346.93C3605.82 2334.04 3608.4 2322.71 3613.55 2312.4C3618.71 2302.09 3626.44 2293.84 3635.72 2286.63C3644.99 2279.41 3656.85 2274.26 3670.25 2270.65C3683.65 2267.04 3698.08 2264.98 3714.57 2264.98C3751.17 2264.98 3779 2272.71 3797.55 2287.66C3816.11 2302.61 3827.45 2322.19 3831.05 2345.9H3768.69C3763.54 2321.68 3745.5 2309.31 3714.06 2309.31C3698.6 2309.31 3686.74 2312.4 3679.01 2318.58C3671.28 2324.77 3667.67 2333.01 3667.67 2342.29C3667.67 2348.48 3669.22 2353.63 3672.83 2357.24C3675.92 2361.36 3681.07 2364.45 3687.26 2367.03C3693.44 2369.61 3700.66 2371.67 3709.42 2373.22L3737.77 2378.88C3750.65 2381.46 3763.54 2384.55 3775.91 2387.65C3788.28 2390.74 3799.1 2395.89 3808.89 2402.08C3818.69 2408.26 3826.42 2417.02 3832.6 2427.33C3838.27 2437.64 3841.36 2451.56 3841.36 2468.05C3841.36 2482.48 3838.27 2495.37 3832.6 2506.19C3826.42 2517.53 3818.17 2526.81 3807.86 2534.02C3797.55 2541.24 3785.18 2546.91 3770.75 2550.51C3756.32 2554.64 3740.34 2556.18 3723.85 2556.18ZM3853.01 2272.2H3895.27V2184.58H3959.7V2272.2H4014.85V2317.04H3959.7V2471.14C3959.7 2481.45 3962.28 2488.15 3967.43 2491.76C3972.59 2495.37 3979.8 2496.91 3989.08 2496.91C3992.17 2496.91 3995.78 2496.91 3999.9 2496.4C4004.03 2496.4 4007.12 2495.88 4010.21 2494.85H4013.3V2545.88C4007.63 2546.91 4001.45 2547.94 3994.23 2548.97C3987.02 2550 3978.77 2550 3970.01 2550C3958.67 2550 3948.88 2548.97 3939.6 2546.91C3930.32 2544.84 3922.08 2541.24 3915.89 2536.08C3909.19 2530.93 3904.04 2524.23 3900.43 2515.98C3896.82 2507.74 3895.27 2497.94 3895.27 2485.57V2317.04H3853.01V2272.2ZM1302.1 2678.96H1373.23V3000.06H1559.81V3062.42H1302.1V2678.96ZM1715.89 3070.67C1693.73 3070.67 1674.14 3067.06 1656.62 3059.33C1639.1 3052.11 1624.67 3041.81 1612.81 3028.41C1600.44 3015.52 1591.16 3000.06 1584.98 2982.53C1578.79 2965.01 1575.7 2945.94 1575.7 2925.32C1575.7 2904.71 1578.79 2885.64 1585.5 2868.11C1591.68 2850.59 1600.96 2835.13 1613.33 2821.73C1625.18 2808.84 1639.61 2798.54 1656.62 2791.32C1673.11 2784.1 1691.67 2779.98 1712.28 2779.98C1732.39 2779.98 1750.42 2783.59 1765.89 2790.29C1781.35 2796.99 1795.26 2806.27 1807.12 2818.64C1820.52 2833.07 1830.31 2851.11 1837.01 2871.72C1843.2 2892.34 1846.29 2915.53 1846.29 2941.3H1640.64C1642.7 2965.01 1650.44 2984.6 1662.81 2999.03C1675.18 3013.46 1693.21 3020.67 1716.41 3020.67C1731.87 3020.67 1744.75 3017.58 1755.06 3011.4C1765.37 3005.21 1772.59 2995.93 1777.23 2984.6H1841.14C1837.53 2996.97 1832.37 3008.82 1825.16 3019.13C1817.94 3029.44 1809.18 3038.71 1798.87 3046.44C1788.05 3054.18 1775.68 3060.36 1761.76 3064.48C1747.85 3068.61 1732.39 3070.67 1715.89 3070.67ZM1712.28 2827.4C1690.64 2827.4 1674.14 2834.1 1662.81 2847.5C1651.47 2860.9 1644.25 2878.42 1641.67 2900.07H1778.77C1777.23 2877.39 1770.52 2859.87 1759.19 2846.98C1747.85 2834.1 1731.87 2827.4 1712.28 2827.4ZM2060.14 3062.42C2057.56 3059.33 2055.5 3055.21 2053.95 3049.54C2052.41 3043.87 2051.38 3036.14 2050.86 3026.86H2049.83C2040.55 3039.23 2029.73 3049.02 2016.33 3057.27C2002.93 3065.51 1984.89 3069.12 1963.24 3069.12C1949.84 3069.12 1936.96 3067.58 1925.62 3063.97C1914.28 3060.88 1904.49 3055.72 1896.24 3048.51C1887.99 3041.81 1881.29 3033.56 1876.65 3023.25C1871.5 3012.94 1869.44 3001.09 1869.44 2987.69C1869.44 2972.23 1872.02 2959.86 1877.68 2949.55C1883.35 2939.24 1891.09 2930.99 1901.39 2924.81C1911.19 2918.62 1923.04 2913.99 1936.96 2910.89C1950.36 2907.8 1965.82 2904.71 1982.31 2902.65C2004.99 2900.07 2022 2896.46 2033.34 2891.31C2044.68 2886.15 2050.35 2877.39 2050.35 2865.02C2050.35 2853.17 2046.22 2843.38 2037.98 2836.16C2029.73 2828.94 2017.36 2825.34 2000.87 2825.34C1982.31 2825.34 1968.4 2829.46 1959.12 2837.19C1949.84 2845.44 1945.2 2856.26 1944.69 2869.66H1882.84C1882.84 2858.32 1885.42 2846.98 1890.57 2836.16C1895.72 2825.34 1902.94 2815.54 1912.73 2807.3C1922.52 2799.05 1934.89 2792.87 1949.33 2787.71C1963.76 2782.56 1980.77 2779.98 2000.35 2779.98C2015.81 2779.98 2029.73 2781.53 2042.1 2783.59C2054.47 2786.17 2064.78 2790.29 2074.05 2795.96C2099.82 2811.94 2113.22 2838.22 2113.22 2874.3V3019.13C2113.22 3030.47 2113.74 3039.23 2115.8 3045.41C2117.86 3051.6 2120.44 3055.72 2123.53 3057.78V3062.42H2060.14ZM1982.31 3024.28C1993.65 3024.28 2003.44 3022.74 2012.21 3019.13C2020.45 3015.52 2027.67 3010.88 2033.85 3005.21C2039.52 2999.54 2044.16 2992.84 2047.25 2985.63C2050.35 2978.41 2051.89 2970.68 2051.89 2962.43V2921.72C2045.19 2925.84 2036.94 2929.45 2027.67 2932.54C2017.87 2935.63 2008.08 2937.69 1998.29 2939.76C1977.67 2943.88 1962.21 2948.52 1951.39 2954.7C1940.05 2960.89 1934.89 2971.2 1934.89 2986.14C1934.89 2993.36 1935.93 2999.54 1938.5 3004.7C1941.08 3009.85 1944.69 3013.46 1948.81 3016.55C1952.93 3019.64 1958.09 3021.7 1964.27 3022.74C1969.94 3023.77 1976.13 3024.28 1982.31 3024.28ZM2269.09 3071.18C2250.53 3071.18 2234.04 3068.09 2219.61 3061.39C2204.66 3054.69 2192.29 3044.9 2181.98 3032.01C2171.67 3019.64 2163.43 3004.18 2157.76 2986.14C2152.09 2968.1 2149.51 2948 2149.51 2925.32C2149.51 2903.68 2152.09 2883.58 2158.27 2865.54C2163.94 2848.01 2172.19 2832.55 2183.01 2819.67C2193.32 2807.3 2206.21 2797.5 2220.64 2790.29C2235.07 2783.59 2251.56 2779.98 2269.09 2779.98C2288.16 2779.98 2304.65 2784.62 2319.08 2792.87C2333 2801.11 2344.33 2812.45 2353.61 2826.88H2354.64C2353.61 2819.67 2353.1 2810.9 2353.1 2800.6C2352.58 2790.29 2352.58 2779.98 2352.58 2769.67V2678.96H2418.04V3062.42H2354.64V3022.22H2353.61C2344.85 3038.71 2333.51 3050.57 2319.08 3058.81C2304.65 3067.06 2287.64 3071.18 2269.09 3071.18ZM2282.49 3017.58C2294.34 3017.58 2304.65 3015.52 2313.93 3010.88C2323.2 3006.76 2330.42 3000.06 2336.6 2991.81C2342.79 2983.57 2347.43 2973.77 2350.52 2962.43C2353.61 2951.09 2355.16 2938.72 2355.16 2925.32C2355.16 2911.92 2353.61 2899.04 2350.52 2887.7C2347.43 2876.36 2342.79 2866.05 2336.6 2857.81C2330.42 2849.56 2323.2 2842.86 2313.93 2838.22C2304.65 2833.58 2294.34 2831.01 2282.49 2831.01C2271.15 2831.01 2261.35 2833.58 2253.11 2838.22C2244.86 2842.86 2237.65 2849.56 2232.49 2857.81C2226.82 2866.05 2222.7 2876.36 2220.12 2887.7C2217.03 2899.04 2216 2911.41 2216 2924.81C2216 2952.64 2221.15 2974.8 2232.49 2991.81C2243.32 3009.34 2259.81 3017.58 2282.49 3017.58ZM2704.23 2678.96H2780.51L2920.19 3062.42H2843.91L2813.5 2971.2H2668.15L2637.23 3062.42H2565.07L2704.23 2678.96ZM2685.68 2918.62H2795.97L2766.6 2829.97C2762.47 2818.64 2759.38 2807.81 2756.29 2796.99C2753.19 2786.17 2751.13 2776.37 2749.07 2767.1C2746.49 2756.79 2744.43 2746.99 2742.37 2737.72H2741.34C2738.25 2748.54 2735.67 2759.36 2733.09 2770.19C2730.52 2779.47 2727.94 2789.77 2724.85 2800.6C2721.75 2811.42 2719.18 2821.21 2716.09 2829.97L2685.68 2918.62ZM3059.47 3158.29C3022.36 3158.29 2992.98 3151.59 2971.34 3137.16C2949.69 3122.72 2936.8 3102.62 2933.71 3076.34H2996.59C3000.71 3099.02 3021.33 3110.35 3058.44 3110.35C3102.76 3110.35 3124.93 3090.25 3124.93 3050.05V3043.35C3124.93 3036.14 3124.93 3028.92 3124.93 3022.22C3124.93 3016.04 3125.44 3010.37 3125.96 3005.21H3124.41C3115.65 3019.13 3105.34 3029.44 3092.97 3036.65C3080.6 3043.87 3065.14 3047.48 3046.58 3047.48C3029.58 3047.48 3013.6 3044.38 2999.17 3038.2C2984.74 3032.01 2971.85 3023.25 2961.03 3011.91C2950.2 3000.57 2941.96 2987.17 2935.77 2970.68C2929.59 2954.19 2926.5 2935.63 2926.5 2915.02C2926.5 2894.4 2929.07 2875.85 2935.26 2859.35C2941.44 2842.86 2949.69 2828.43 2960 2816.57C2970.3 2805.24 2982.16 2795.96 2996.59 2789.77C3011.02 2783.59 3026.48 2779.98 3042.98 2779.98C3081.12 2779.98 3107.92 2794.41 3124.41 2822.76H3125.44V2787.2H3188.84V3044.38C3188.84 3063.97 3185.74 3080.98 3179.56 3094.89C3173.37 3109.32 3165.13 3121.18 3154.3 3130.46C3142.96 3140.25 3129.05 3147.46 3113.07 3151.59C3096.58 3156.23 3079.05 3158.29 3059.47 3158.29ZM3058.44 2996.97C3070.81 2996.97 3081.12 2994.9 3089.88 2990.78C3098.64 2986.66 3105.86 2980.47 3111.53 2973.26C3116.68 2966.04 3120.8 2956.76 3123.38 2946.46C3125.96 2936.15 3127.5 2925.32 3127.5 2912.95C3127.5 2888.22 3121.83 2868.63 3110.49 2853.68C3099.16 2838.74 3081.63 2831.01 3057.92 2831.01C3036.28 2831.01 3019.78 2838.74 3008.44 2853.68C2997.11 2868.63 2991.44 2888.73 2991.44 2913.99C2991.44 2939.76 2997.11 2959.86 3008.44 2974.8C3019.78 2989.75 3036.79 2996.97 3058.44 2996.97ZM3417.4 3062.42C3414.82 3059.33 3412.76 3055.21 3411.22 3049.54C3409.67 3043.87 3408.64 3036.14 3408.12 3026.86H3407.09C3397.82 3039.23 3386.99 3049.02 3373.59 3057.27C3360.19 3065.51 3342.15 3069.12 3320.51 3069.12C3307.1 3069.12 3294.22 3067.58 3282.88 3063.97C3271.54 3060.88 3261.75 3055.72 3253.5 3048.51C3245.26 3041.81 3238.56 3033.56 3233.92 3023.25C3228.76 3012.94 3226.7 3001.09 3226.7 2987.69C3226.7 2972.23 3229.28 2959.86 3234.95 2949.55C3240.62 2939.24 3248.35 2930.99 3258.66 2924.81C3268.45 2918.62 3280.3 2913.99 3294.22 2910.89C3307.62 2907.8 3323.08 2904.71 3339.58 2902.65C3362.25 2900.07 3379.26 2896.46 3390.6 2891.31C3401.94 2886.15 3407.61 2877.39 3407.61 2865.02C3407.61 2853.17 3403.49 2843.38 3395.24 2836.16C3386.99 2828.94 3374.62 2825.34 3358.13 2825.34C3339.58 2825.34 3325.66 2829.46 3316.38 2837.19C3307.1 2845.44 3302.47 2856.26 3301.95 2869.66H3240.1C3240.1 2858.32 3242.68 2846.98 3247.83 2836.16C3252.99 2825.34 3260.2 2815.54 3270 2807.3C3279.79 2799.05 3292.16 2792.87 3306.59 2787.71C3321.02 2782.56 3338.03 2779.98 3357.61 2779.98C3373.08 2779.98 3386.99 2781.53 3399.36 2783.59C3411.73 2786.17 3422.04 2790.29 3431.32 2795.96C3457.09 2811.94 3470.49 2838.22 3470.49 2874.3V3019.13C3470.49 3030.47 3471 3039.23 3473.06 3045.41C3475.13 3051.6 3477.7 3055.72 3480.8 3057.78V3062.42H3417.4ZM3339.58 3024.28C3350.91 3024.28 3360.71 3022.74 3369.47 3019.13C3377.72 3015.52 3384.93 3010.88 3391.12 3005.21C3396.78 2999.54 3401.42 2992.84 3404.52 2985.63C3407.61 2978.41 3409.15 2970.68 3409.15 2962.43V2921.72C3402.45 2925.84 3394.21 2929.45 3384.93 2932.54C3375.14 2935.63 3365.35 2937.69 3355.55 2939.76C3334.94 2943.88 3319.47 2948.52 3308.65 2954.7C3297.31 2960.89 3292.16 2971.2 3292.16 2986.14C3292.16 2993.36 3293.19 2999.54 3295.77 3004.7C3298.34 3009.85 3301.95 3013.46 3306.07 3016.55C3310.2 3019.64 3315.35 3021.7 3321.54 3022.74C3327.21 3023.77 3333.39 3024.28 3339.58 3024.28ZM3519.66 2678.96H3586.66V2742.36H3519.66V2678.96ZM3520.69 2787.2H3586.15V3062.42H3520.69V2787.2ZM3699.12 2827.4H3700.66C3709.43 2811.94 3720.76 2800.6 3735.2 2792.35C3749.63 2784.1 3766.64 2779.98 3786.22 2779.98C3816.11 2779.98 3839.31 2788.74 3855.8 2805.75C3872.29 2822.76 3881.05 2845.95 3881.05 2875.85V3062.42H3815.6V2886.67C3815.6 2870.18 3810.96 2857.29 3801.68 2848.01C3792.41 2838.74 3779.52 2834.1 3763.03 2834.1C3753.75 2834.1 3744.99 2836.16 3737.77 2839.25C3730.04 2842.34 3723.34 2846.98 3718.19 2853.17C3712.52 2859.35 3708.39 2866.05 3705.3 2874.3C3702.21 2882.55 3700.66 2891.82 3700.66 2901.1V3062.42H3635.21V2787.2H3699.12V2827.4Z" fill="white"/>
<path d="M2549.01 0.0121367L2434.81 231.392L2179.43 268.502L2364.22 448.613L2320.6 702.956L2549.01 582.894L2777.42 702.968L2733.79 448.625L2918.58 268.514L2663.2 231.392L2549.01 0.0121367ZM1475.12 319.686L1360.92 551.091L1105.55 588.201L1290.35 768.311L1246.73 1022.67L1475.12 902.568L1703.54 1022.67L1659.9 768.311L1844.69 588.201L1589.31 551.091L1475.12 319.686ZM3622.89 319.686L3508.68 551.091L3253.32 588.201L3438.11 768.311L3394.49 1022.67L3622.91 902.568L3851.29 1022.67L3807.67 768.311L3992.45 588.201L3737.08 551.091L3622.89 319.686ZM661.513 1138.45L547.316 1369.83L291.941 1406.94L476.739 1587.05L433.12 1841.4L661.513 1721.32L889.929 1841.4L846.298 1587.05L1031.08 1406.96L775.709 1369.83L661.513 1138.45ZM4436.5 1138.45L4322.29 1369.83L4066.92 1406.94L4251.7 1587.05L4208.08 1841.4L4436.5 1721.32L4664.88 1841.4L4621.26 1587.05L4806.05 1406.94L4550.67 1369.82L4436.49 1138.43L4436.5 1138.45ZM370.072 2213.08L255.875 2444.46L0.5 2481.57L185.298 2661.68L141.679 2916.03L370.072 2795.95L598.488 2916.01L554.857 2661.67L739.643 2481.57L484.268 2444.46L370.072 2213.07V2213.08ZM4727.94 2213.08L4613.73 2444.46L4358.37 2481.57L4543.15 2661.68L4499.54 2916.03L4727.95 2795.95L4956.33 2916.01L4912.71 2661.67L5097.5 2481.56L4842.12 2444.45L4727.94 2213.06V2213.08ZM661.513 3304.73L547.316 3536.13L291.941 3573.25L476.739 3753.34L433.12 4007.69L661.513 3887.59L889.929 4007.69L846.298 3753.35L1031.08 3573.26L775.709 3536.13L661.513 3304.73ZM4436.5 3304.73L4322.29 3536.13L4066.93 3573.26L4251.71 3753.35L4208.09 4007.7L4436.51 3887.6L4664.89 4007.7L4621.27 3753.36L4806.06 3573.27L4550.68 3536.14L4436.5 3304.73ZM1475.12 4103.11L1360.92 4334.5L1105.55 4371.63L1290.35 4551.74L1246.73 4806.08L1475.12 4685.98L1703.54 4806.08L1659.9 4551.74L1844.69 4371.63L1589.31 4334.5L1475.12 4103.11ZM3622.89 4103.11L3508.68 4334.5L3253.31 4371.63L3438.1 4551.74L3394.48 4806.08L3622.89 4685.98L3851.27 4806.08L3807.65 4551.74L3992.44 4371.63L3737.07 4334.5L3622.89 4103.11ZM2546.87 4389.87L2432.67 4621.27L2177.3 4658.37L2362.08 4838.5L2318.49 5092.82L2323.16 5090.36L2322.74 5092.82L2549.01 4973.85L2775.27 5092.82L2774.85 5090.36L2779.54 5092.82L2735.94 4838.5L2920.7 4658.37L2665.33 4621.27L2551.13 4389.87L2548.99 4394.18L2546.86 4389.87H2546.87Z" fill="white"/>
</svg>
