<svg width="500" height="500" viewBox="0 0 500 500" fill="none" xmlns="http://www.w3.org/2000/svg">
<rect width="500" height="500" fill="white"/>
<rect x="234.879" y="313.334" width="152.781" height="20.9703" transform="rotate(-130.109 234.879 313.334)" fill="black"/>
<rect x="234.879" y="313.334" width="152.781" height="20.9703" transform="rotate(-130.109 234.879 313.334)" fill="black"/>
<rect x="234.879" y="313.334" width="152.781" height="20.9703" transform="rotate(-130.109 234.879 313.334)" fill="black"/>
<rect x="94" y="294.548" width="312.316" height="21.0859" fill="black"/>
<rect x="94" y="294.548" width="312.316" height="21.0859" fill="black"/>
<rect x="94" y="294.548" width="312.316" height="21.0859" fill="black"/>
<rect x="269.93" y="287.931" width="130.855" height="20.9703" transform="rotate(-18.1095 269.93 287.931)" fill="black"/>
<rect x="269.93" y="287.931" width="130.855" height="20.9703" transform="rotate(-18.1095 269.93 287.931)" fill="black"/>
<rect x="269.93" y="287.931" width="130.855" height="20.9703" transform="rotate(-18.1095 269.93 287.931)" fill="black"/>
<rect x="174.746" y="329.763" width="42.8467" height="20.9703" fill="black"/>
<rect x="174.746" y="329.763" width="42.8467" height="20.9703" fill="black"/>
<rect x="174.746" y="329.763" width="42.8467" height="20.9703" fill="black"/>
<rect x="279.727" y="329.763" width="42.8467" height="20.9703" fill="black"/>
<rect x="279.727" y="329.763" width="42.8467" height="20.9703" fill="black"/>
<rect x="279.727" y="329.763" width="42.8467" height="20.9703" fill="black"/>
<rect x="247.672" y="289.037" width="151.411" height="20.9703" transform="rotate(-34.1095 247.672 289.037)" fill="black"/>
<rect x="247.672" y="289.037" width="151.411" height="20.9703" transform="rotate(-34.1095 247.672 289.037)" fill="black"/>
<rect x="247.672" y="289.037" width="151.411" height="20.9703" transform="rotate(-34.1095 247.672 289.037)" fill="black"/>
<rect x="238.535" y="290.705" width="149.122" height="20.9703" transform="rotate(-50.1095 238.535 290.705)" fill="black"/>
<rect x="238.535" y="290.705" width="149.122" height="20.9703" transform="rotate(-50.1095 238.535 290.705)" fill="black"/>
<rect x="238.535" y="290.705" width="149.122" height="20.9703" transform="rotate(-50.1095 238.535 290.705)" fill="black"/>
<rect x="231.871" y="295.835" width="152.781" height="20.9703" transform="rotate(-66.1095 231.871 295.835)" fill="black"/>
<rect x="231.871" y="295.835" width="152.781" height="20.9703" transform="rotate(-66.1095 231.871 295.835)" fill="black"/>
<rect x="231.871" y="295.835" width="152.781" height="20.9703" transform="rotate(-66.1095 231.871 295.835)" fill="black"/>
<rect x="232.016" y="301.335" width="152.781" height="20.9703" transform="rotate(-82.1095 232.016 301.335)" fill="black"/>
<rect x="232.016" y="301.335" width="152.781" height="20.9703" transform="rotate(-82.1095 232.016 301.335)" fill="black"/>
<rect x="232.016" y="301.335" width="152.781" height="20.9703" transform="rotate(-82.1095 232.016 301.335)" fill="black"/>
<rect x="232.195" y="304.877" width="152.781" height="20.9703" transform="rotate(-98.1095 232.195 304.877)" fill="black"/>
<rect x="232.195" y="304.877" width="152.781" height="20.9703" transform="rotate(-98.1095 232.195 304.877)" fill="black"/>
<rect x="232.195" y="304.877" width="152.781" height="20.9703" transform="rotate(-98.1095 232.195 304.877)" fill="black"/>
<rect x="233.75" y="309.391" width="152.781" height="20.9703" transform="rotate(-114.109 233.75 309.391)" fill="black"/>
<rect x="233.75" y="309.391" width="152.781" height="20.9703" transform="rotate(-114.109 233.75 309.391)" fill="black"/>
<rect x="233.75" y="309.391" width="152.781" height="20.9703" transform="rotate(-114.109 233.75 309.391)" fill="black"/>
<rect x="239.402" y="315.893" width="152.781" height="20.9703" transform="rotate(-146.109 239.402 315.893)" fill="black"/>
<rect x="239.402" y="315.893" width="152.781" height="20.9703" transform="rotate(-146.109 239.402 315.893)" fill="black"/>
<rect x="239.402" y="315.893" width="152.781" height="20.9703" transform="rotate(-146.109 239.402 315.893)" fill="black"/>
<rect x="244.281" y="314.042" width="152.781" height="20.9703" transform="rotate(-162.109 244.281 314.042)" fill="black"/>
<rect x="244.281" y="314.042" width="152.781" height="20.9703" transform="rotate(-162.109 244.281 314.042)" fill="black"/>
<rect x="244.281" y="314.042" width="152.781" height="20.9703" transform="rotate(-162.109 244.281 314.042)" fill="black"/>
</svg>
