<svg width="3065" height="934" viewBox="0 0 3065 934" fill="none" xmlns="http://www.w3.org/2000/svg">
<path d="M1550.76 56.3038L1786.76 56.013L1786.83 112.707L1617.67 112.915L1617.77 192.194L1761.11 192.018L1761.18 249.172L1617.84 249.349L1618 385.783L1551.17 385.865L1550.76 56.3038ZM1810.26 149.091L1872.95 149.014L1873.24 385.468L1810.56 385.545L1810.26 149.091ZM1810.15 55.9841L1872.83 55.9069L1872.9 112.14L1810.22 112.217L1810.15 55.9841ZM1965.47 181.164L1966.85 181.163C1974.82 168.247 1984.34 158.556 1995.39 152.089C2006.75 145.622 2020.58 142.379 2036.86 142.359C2049.15 142.344 2060.22 144.635 2070.06 149.232C2080.2 153.521 2088.81 159.656 2095.89 167.637C2102.97 175.31 2108.51 184.522 2112.52 195.272C2116.53 206.022 2118.54 217.85 2118.55 230.756L2118.74 385.165L2056.06 385.243L2055.88 240.051C2055.86 227.146 2052.32 216.702 2045.24 208.722C2038.16 200.741 2028.02 196.759 2014.8 196.775C2000.98 196.792 1989.46 201.876 1980.25 212.028C1971.35 221.872 1966.91 234.937 1966.93 251.223L1967.1 385.352L1904.41 385.43L1904.12 148.975L1965.43 148.9L1965.47 181.164ZM2297.04 384.946C2295.2 382.49 2293.66 378.804 2292.42 373.889C2291.18 368.974 2290.26 363.905 2289.64 358.682L2288.71 358.683C2285.65 363.296 2282.12 367.603 2278.13 371.602C2274.45 375.294 2269.84 378.526 2264.31 381.299C2259.09 384.071 2252.8 386.229 2245.42 387.775C2238.05 389.628 2229.29 390.56 2219.15 390.573C2194.88 390.603 2175.05 384.481 2159.67 372.209C2144.29 359.937 2136.59 341.97 2136.56 318.309C2136.54 305.403 2138.99 294.492 2143.89 285.575C2148.8 276.657 2155.55 269.274 2164.15 263.425C2172.74 257.576 2182.72 253.108 2194.09 250.021C2205.76 246.627 2218.2 244 2231.42 242.14C2251.08 239.35 2265.52 236.413 2274.73 233.329C2283.95 230.245 2288.55 224.247 2288.54 215.336C2288.53 206.732 2285.14 199.976 2278.37 195.067C2271.91 189.852 2262.08 187.252 2248.86 187.268C2234.11 187.286 2223.05 190.065 2215.69 195.606C2208.32 200.839 2204.18 209.14 2203.27 220.511L2147.5 220.58C2147.8 210.132 2150.09 200.296 2154.38 191.072C2158.67 181.541 2164.96 173.236 2173.25 166.159C2181.53 159.081 2191.97 153.383 2204.57 149.066C2217.16 144.748 2232.06 142.579 2249.27 142.558C2284.61 142.514 2309.97 150.165 2325.35 165.51C2341.04 180.548 2348.9 201.894 2348.94 229.55L2349.08 349.851C2349.11 367.674 2351.89 378.579 2357.42 382.567L2357.42 384.871L2297.04 384.946ZM2234.31 346.766C2243.22 346.755 2251.06 345.516 2257.81 343.05C2264.88 340.276 2270.71 336.888 2275.32 332.888C2280.23 328.58 2283.91 323.812 2286.36 318.586C2288.81 313.051 2290.03 307.365 2290.03 301.527L2289.98 266.036C2284.46 269.423 2277.7 272.196 2269.71 274.357C2262.03 276.21 2254.2 278.064 2246.21 279.917C2229.62 283.625 2217.34 287.942 2209.35 292.869C2201.37 297.795 2197.39 305.789 2197.4 316.852C2197.41 327.914 2200.8 335.745 2207.57 340.346C2214.33 344.64 2223.25 346.78 2234.31 346.766ZM2380.28 55.2815L2442.96 55.2042L2443.37 384.765L2380.68 384.843L2380.28 55.2815ZM1551.33 517.303L1787.33 517.013L1787.4 573.706L1618.24 573.915L1618.33 653.194L1761.68 653.017L1761.75 710.172L1618.4 710.349L1618.57 846.782L1551.74 846.865L1551.33 517.303ZM1857.31 647.829L1858.69 647.827C1865.74 634.298 1873.72 624.148 1882.62 617.377C1891.52 610.606 1902.89 607.212 1916.72 607.195C1923.17 607.187 1928.09 607.795 1931.47 609.02L1931.53 663.87L1930.15 663.872C1909.56 661.746 1892.67 666.223 1879.47 677.301C1866.27 688.38 1859.68 706.364 1859.71 731.254L1859.86 846.485L1797.17 846.562L1796.88 610.108L1857.26 610.033L1857.31 647.829ZM2054.81 853.158C2036.37 853.181 2019.62 849.975 2004.55 843.541C1989.49 837.107 1976.42 828.365 1965.34 817.317C1954.57 805.96 1946.11 792.758 1939.94 777.708C1934.09 762.351 1931.15 745.915 1931.12 728.4C1931.1 710.885 1934 694.595 1939.82 679.531C1945.95 664.16 1954.38 650.936 1965.12 639.861C1976.17 628.477 1989.22 619.55 2004.27 613.079C2019.32 606.607 2036.06 603.36 2054.5 603.337C2072.94 603.315 2089.69 606.52 2104.75 612.955C2119.82 619.389 2132.73 628.285 2143.5 639.641C2154.58 650.689 2163.04 663.892 2168.9 679.249C2175.07 694.298 2178.16 710.581 2178.18 728.096C2178.2 745.611 2175.15 762.054 2169.02 777.426C2163.2 792.49 2154.77 805.714 2143.72 817.097C2132.98 828.172 2120.08 836.946 2105.03 843.417C2089.99 849.889 2073.24 853.136 2054.81 853.158ZM2054.75 805.222C2074.11 805.198 2088.85 798.113 2098.97 783.965C2109.4 769.817 2114.6 751.22 2114.57 728.174C2114.54 705.128 2109.3 686.544 2098.83 672.421C2088.67 657.992 2073.92 650.789 2054.56 650.813C2035.2 650.836 2020.3 658.076 2009.87 672.531C1999.75 686.679 1994.7 705.275 1994.73 728.322C1994.76 751.368 1999.85 769.952 2010.01 784.075C2020.48 798.197 2035.39 805.246 2054.75 805.222ZM2259.3 641.803L2260.68 641.801C2268.65 628.885 2278.17 619.194 2289.22 612.727C2300.58 606.261 2314.41 603.017 2330.69 602.997C2342.98 602.982 2354.05 605.273 2363.89 609.87C2374.03 614.159 2382.65 620.294 2389.72 628.275C2396.8 635.948 2402.34 645.16 2406.35 655.91C2410.36 666.66 2412.37 678.488 2412.39 691.394L2412.58 845.804L2349.89 845.881L2349.71 700.69C2349.7 687.784 2346.15 677.34 2339.07 669.36C2331.99 661.379 2321.85 657.397 2308.64 657.413C2294.81 657.43 2283.29 662.515 2274.08 672.666C2265.19 682.51 2260.75 695.575 2260.77 711.861L2260.93 845.991L2198.25 846.068L2197.95 609.613L2259.26 609.538L2259.3 641.803ZM2423.38 609.336L2456.1 609.295L2456.01 535.547L2517.31 535.472L2517.4 609.22L2557.97 609.17L2558.02 650.653L2517.46 650.703L2517.61 776.074C2517.62 784.986 2519.78 791.129 2524.09 794.504C2528.39 797.878 2534.08 799.561 2541.15 799.553L2553.13 799.538C2555.28 799.535 2557.43 799.379 2559.58 799.069L2559.64 845.161C2556.57 845.473 2553.19 845.63 2549.5 845.635C2546.12 845.946 2541.97 846.105 2537.05 846.111C2532.14 846.117 2526.61 846.124 2520.46 846.132C2512.78 846.141 2505.1 845.382 2497.41 843.855C2490.04 842.021 2483.27 838.956 2477.12 834.662C2470.97 830.368 2465.89 824.535 2461.89 817.166C2458.19 809.795 2456.34 800.579 2456.32 789.517L2456.15 650.779L2423.43 650.819L2423.38 609.336ZM2581.03 609.141L2643.71 609.064L2644 845.518L2581.32 845.596L2581.03 609.141ZM2580.91 516.035L2643.6 515.957L2643.67 572.19L2580.98 572.267L2580.91 516.035ZM2786.27 852.257C2766.6 852.281 2749.08 849.076 2733.71 842.642C2718.65 836.208 2705.88 827.466 2695.42 816.417C2684.96 805.06 2676.95 791.703 2671.4 776.346C2666.16 760.988 2663.53 744.552 2663.51 727.037C2663.49 709.521 2666.23 693.232 2671.74 678.168C2677.56 662.797 2685.54 649.574 2695.66 638.499C2706.1 627.424 2718.38 618.652 2732.5 612.181C2746.94 605.71 2762.76 602.464 2779.97 602.443C2799.02 602.42 2815.77 605.933 2830.22 612.983C2844.67 619.725 2856.82 629.389 2866.67 641.976C2876.52 654.562 2883.91 669.61 2888.85 687.119C2894.1 704.321 2896.73 723.523 2896.76 744.725L2725.29 744.937C2727.77 763.37 2733.94 777.805 2743.78 788.241C2753.94 798.676 2767.93 803.882 2785.75 803.86C2798.04 803.845 2807.87 801.221 2815.24 795.988C2822.61 790.755 2827.97 783.681 2831.34 774.766L2893.11 774.69C2890.97 785.14 2886.99 795.132 2881.16 804.665C2875.64 813.89 2868.28 822.042 2859.07 829.121C2850.16 836.199 2839.57 841.744 2827.28 845.753C2815 850.071 2801.33 852.238 2786.27 852.257ZM2780.95 650.839C2764.36 650.86 2751.76 655.484 2743.17 664.713C2734.58 673.635 2728.91 685.934 2726.16 701.608L2831.25 701.479C2830.31 686.423 2825.23 674.292 2816 665.085C2807.07 655.57 2795.39 650.821 2780.95 650.839ZM2976.81 646.449L2978.2 646.448C2985.25 632.919 2993.22 622.768 3002.13 615.997C3011.03 609.226 3022.39 605.832 3036.22 605.815C3042.67 605.807 3047.59 606.415 3050.97 607.64L3051.04 662.49L3049.66 662.492C3029.07 660.366 3012.17 664.843 2998.97 675.921C2985.77 687 2979.19 704.984 2979.22 729.874L2979.36 845.105L2916.68 845.182L2916.38 608.728L2976.77 608.654L2976.81 646.449Z" fill="black"/>
<rect x="598.521" y="704.098" width="649.103" height="89.0943" transform="rotate(-130.109 598.521 704.098)" fill="black"/>
<rect x="598.521" y="704.098" width="649.103" height="89.0943" transform="rotate(-130.109 598.521 704.098)" fill="black"/>
<rect x="598.521" y="704.098" width="649.103" height="89.0943" transform="rotate(-130.109 598.521 704.098)" fill="black"/>
<rect y="624.279" width="1326.91" height="89.5856" fill="black"/>
<rect y="624.279" width="1326.91" height="89.5856" fill="black"/>
<rect y="624.279" width="1326.91" height="89.5856" fill="black"/>
<rect x="747.471" y="596.162" width="555.949" height="89.0943" transform="rotate(-18.1095 747.471 596.162)" fill="black"/>
<rect x="747.471" y="596.162" width="555.949" height="89.0943" transform="rotate(-18.1095 747.471 596.162)" fill="black"/>
<rect x="747.471" y="596.162" width="555.949" height="89.0943" transform="rotate(-18.1095 747.471 596.162)" fill="black"/>
<rect x="343.061" y="773.889" width="182.038" height="89.0943" fill="black"/>
<rect x="343.061" y="773.889" width="182.038" height="89.0943" fill="black"/>
<rect x="343.061" y="773.889" width="182.038" height="89.0943" fill="black"/>
<rect x="789.078" y="773.889" width="182.038" height="89.0943" fill="black"/>
<rect x="789.078" y="773.889" width="182.038" height="89.0943" fill="black"/>
<rect x="789.078" y="773.889" width="182.038" height="89.0943" fill="black"/>
<rect x="652.918" y="600.877" width="643.282" height="89.0943" transform="rotate(-34.1095 652.918 600.877)" fill="black"/>
<rect x="652.918" y="600.877" width="643.282" height="89.0943" transform="rotate(-34.1095 652.918 600.877)" fill="black"/>
<rect x="652.918" y="600.877" width="643.282" height="89.0943" transform="rotate(-34.1095 652.918 600.877)" fill="black"/>
<rect x="614.072" y="607.963" width="633.558" height="89.0943" transform="rotate(-50.1095 614.072 607.963)" fill="black"/>
<rect x="614.072" y="607.963" width="633.558" height="89.0943" transform="rotate(-50.1095 614.072 607.963)" fill="black"/>
<rect x="614.072" y="607.963" width="633.558" height="89.0943" transform="rotate(-50.1095 614.072 607.963)" fill="black"/>
<rect x="585.754" y="629.74" width="649.103" height="89.0943" transform="rotate(-66.1095 585.754 629.74)" fill="black"/>
<rect x="585.754" y="629.74" width="649.103" height="89.0943" transform="rotate(-66.1095 585.754 629.74)" fill="black"/>
<rect x="585.754" y="629.74" width="649.103" height="89.0943" transform="rotate(-66.1095 585.754 629.74)" fill="black"/>
<rect x="586.371" y="653.123" width="649.103" height="89.0943" transform="rotate(-82.1095 586.371 653.123)" fill="black"/>
<rect x="586.371" y="653.123" width="649.103" height="89.0943" transform="rotate(-82.1095 586.371 653.123)" fill="black"/>
<rect x="586.371" y="653.123" width="649.103" height="89.0943" transform="rotate(-82.1095 586.371 653.123)" fill="black"/>
<rect x="587.139" y="668.17" width="649.103" height="89.0943" transform="rotate(-98.1095 587.139 668.17)" fill="black"/>
<rect x="587.139" y="668.17" width="649.103" height="89.0943" transform="rotate(-98.1095 587.139 668.17)" fill="black"/>
<rect x="587.139" y="668.17" width="649.103" height="89.0943" transform="rotate(-98.1095 587.139 668.17)" fill="black"/>
<rect x="593.762" y="687.34" width="649.103" height="89.0943" transform="rotate(-114.109 593.762 687.34)" fill="black"/>
<rect x="593.762" y="687.34" width="649.103" height="89.0943" transform="rotate(-114.109 593.762 687.34)" fill="black"/>
<rect x="593.762" y="687.34" width="649.103" height="89.0943" transform="rotate(-114.109 593.762 687.34)" fill="black"/>
<rect x="617.758" y="714.977" width="649.103" height="89.0943" transform="rotate(-146.109 617.758 714.977)" fill="black"/>
<rect x="617.758" y="714.977" width="649.103" height="89.0943" transform="rotate(-146.109 617.758 714.977)" fill="black"/>
<rect x="617.758" y="714.977" width="649.103" height="89.0943" transform="rotate(-146.109 617.758 714.977)" fill="black"/>
<rect x="638.482" y="707.1" width="649.103" height="89.0943" transform="rotate(-162.109 638.482 707.1)" fill="black"/>
<rect x="638.482" y="707.1" width="649.103" height="89.0943" transform="rotate(-162.109 638.482 707.1)" fill="black"/>
<rect x="638.482" y="707.1" width="649.103" height="89.0943" transform="rotate(-162.109 638.482 707.1)" fill="black"/>
<rect y="624.279" width="1326.91" height="89.5856" fill="black"/>
<rect y="624.279" width="1326.91" height="89.5856" fill="black"/>
<rect y="624.279" width="1326.91" height="89.5856" fill="black"/>
<rect x="747.471" y="596.162" width="555.949" height="89.0943" transform="rotate(-18.1095 747.471 596.162)" fill="black"/>
<rect x="747.471" y="596.162" width="555.949" height="89.0943" transform="rotate(-18.1095 747.471 596.162)" fill="black"/>
<rect x="747.471" y="596.162" width="555.949" height="89.0943" transform="rotate(-18.1095 747.471 596.162)" fill="black"/>
<rect x="343.061" y="773.891" width="182.038" height="89.0943" fill="black"/>
<rect x="343.061" y="773.891" width="182.038" height="89.0943" fill="black"/>
<rect x="343.061" y="773.891" width="182.038" height="89.0943" fill="black"/>
<rect x="789.078" y="773.891" width="182.038" height="89.0943" fill="black"/>
<rect x="789.078" y="773.891" width="182.038" height="89.0943" fill="black"/>
<rect x="789.078" y="773.891" width="182.038" height="89.0943" fill="black"/>
<rect x="652.918" y="600.879" width="643.282" height="89.0943" transform="rotate(-34.1095 652.918 600.879)" fill="black"/>
<rect x="652.918" y="600.879" width="643.282" height="89.0943" transform="rotate(-34.1095 652.918 600.879)" fill="black"/>
<rect x="652.918" y="600.879" width="643.282" height="89.0943" transform="rotate(-34.1095 652.918 600.879)" fill="black"/>
<rect x="614.072" y="607.963" width="633.558" height="89.0943" transform="rotate(-50.1095 614.072 607.963)" fill="black"/>
<rect x="614.072" y="607.963" width="633.558" height="89.0943" transform="rotate(-50.1095 614.072 607.963)" fill="black"/>
<rect x="614.072" y="607.963" width="633.558" height="89.0943" transform="rotate(-50.1095 614.072 607.963)" fill="black"/>
<rect x="585.754" y="629.742" width="649.103" height="89.0943" transform="rotate(-66.1095 585.754 629.742)" fill="black"/>
<rect x="585.754" y="629.742" width="649.103" height="89.0943" transform="rotate(-66.1095 585.754 629.742)" fill="black"/>
<rect x="585.754" y="629.742" width="649.103" height="89.0943" transform="rotate(-66.1095 585.754 629.742)" fill="black"/>
<rect x="586.371" y="653.123" width="649.103" height="89.0943" transform="rotate(-82.1095 586.371 653.123)" fill="black"/>
<rect x="586.371" y="653.123" width="649.103" height="89.0943" transform="rotate(-82.1095 586.371 653.123)" fill="black"/>
<rect x="586.371" y="653.123" width="649.103" height="89.0943" transform="rotate(-82.1095 586.371 653.123)" fill="black"/>
<rect x="587.139" y="668.17" width="649.103" height="89.0943" transform="rotate(-98.1095 587.139 668.17)" fill="black"/>
<rect x="587.139" y="668.17" width="649.103" height="89.0943" transform="rotate(-98.1095 587.139 668.17)" fill="black"/>
<rect x="587.139" y="668.17" width="649.103" height="89.0943" transform="rotate(-98.1095 587.139 668.17)" fill="black"/>
<rect x="593.762" y="687.34" width="649.103" height="89.0943" transform="rotate(-114.109 593.762 687.34)" fill="black"/>
<rect x="593.762" y="687.34" width="649.103" height="89.0943" transform="rotate(-114.109 593.762 687.34)" fill="black"/>
<rect x="593.762" y="687.34" width="649.103" height="89.0943" transform="rotate(-114.109 593.762 687.34)" fill="black"/>
<rect x="617.758" y="714.977" width="649.103" height="89.0943" transform="rotate(-146.109 617.758 714.977)" fill="black"/>
<rect x="617.758" y="714.977" width="649.103" height="89.0943" transform="rotate(-146.109 617.758 714.977)" fill="black"/>
<rect x="617.758" y="714.977" width="649.103" height="89.0943" transform="rotate(-146.109 617.758 714.977)" fill="black"/>
<rect x="638.482" y="707.102" width="649.103" height="89.0943" transform="rotate(-162.109 638.482 707.102)" fill="black"/>
<rect x="638.482" y="707.102" width="649.103" height="89.0943" transform="rotate(-162.109 638.482 707.102)" fill="black"/>
<rect x="638.482" y="707.102" width="649.103" height="89.0943" transform="rotate(-162.109 638.482 707.102)" fill="black"/>
</svg>
